<svg width="22" height="16" viewBox="0 0 22 16" fill="none" xmlns="http://www.w3.org/2000/svg">
<path d="M15.5362 6.36606C15.5957 6.42559 15.6255 6.49404 15.6255 6.57142C15.6255 6.6488 15.5957 6.71726 15.5362 6.77678L11.3755 10.9375C11.316 10.997 11.2475 11.0268 11.1701 11.0268C11.0928 11.0268 11.0243 10.997 10.9648 10.9375L6.80407 6.77678C6.74454 6.71726 6.71478 6.6488 6.71478 6.57142C6.71478 6.49404 6.74454 6.42559 6.80407 6.36606L7.2505 5.91964C7.31002 5.86011 7.37847 5.83035 7.45585 5.83035C7.53324 5.83035 7.60169 5.86011 7.66121 5.91964L11.1701 9.42856L14.6791 5.91964C14.7386 5.86011 14.807 5.83035 14.8844 5.83035C14.9618 5.83035 15.0303 5.86011 15.0898 5.91964L15.5362 6.36606Z" fill="#5A5A5A"/>
</svg>
