<svg width="35" height="35" viewBox="0 0 35 35" fill="none" xmlns="http://www.w3.org/2000/svg">
<path d="M0.5 3.99961C0.5 2.12184 2.02223 0.599609 3.9 0.599609H31.1C32.9778 0.599609 34.5 2.12184 34.5 3.99961V31.1996C34.5 33.0774 32.9778 34.5996 31.1 34.5996H3.9C2.02223 34.5996 0.5 33.0774 0.5 31.1996V3.99961Z" fill="#3B5998"/>
<g clip-path="url(#clip0_131_852)">
<path d="M25.7344 17.5996C25.7344 13.0508 22.0488 9.36523 17.5 9.36523C12.9512 9.36523 9.26562 13.0508 9.26562 17.5996C9.26562 21.7095 12.2768 25.1161 16.2134 25.7344V19.9799H14.1216V17.5996H16.2134V15.7854C16.2134 13.7218 17.4419 12.582 19.3235 12.582C20.2246 12.582 21.167 12.7427 21.167 12.7427V14.768H20.1284C19.1057 14.768 18.7866 15.4029 18.7866 16.054V17.5996H21.0703L20.7051 19.9799H18.7866V25.7344C22.7232 25.1161 25.7344 21.7095 25.7344 17.5996Z" fill="black"/>
</g>
<defs>
<clipPath id="clip0_131_852">
<rect width="17" height="17" fill="white" transform="translate(9 9.09961)"/>
</clipPath>
</defs>
</svg>
