<svg width="35" height="35" viewBox="0 0 35 35" fill="none" xmlns="http://www.w3.org/2000/svg">
<path d="M0.5 3.99961C0.5 2.12184 2.02223 0.599609 3.9 0.599609H31.1C32.9778 0.599609 34.5 2.12184 34.5 3.99961V31.1996C34.5 33.0774 32.9778 34.5996 31.1 34.5996H3.9C2.02223 34.5996 0.5 33.0774 0.5 31.1996V3.99961Z" fill="#262626"/>
<path d="M17.5033 13.7812C15.3916 13.7812 13.6883 15.4845 13.6883 17.5962C13.6883 19.708 15.3916 21.4113 17.5033 21.4113C19.615 21.4113 21.3184 19.708 21.3184 17.5962C21.3184 15.4845 19.615 13.7812 17.5033 13.7812ZM17.5033 20.0765C16.1387 20.0765 15.023 18.9642 15.023 17.5962C15.023 16.2283 16.1354 15.116 17.5033 15.116C18.8713 15.116 19.9836 16.2283 19.9836 17.5962C19.9836 18.9642 18.868 20.0765 17.5033 20.0765ZM22.3643 13.6251C22.3643 14.1199 21.9658 14.515 21.4744 14.515C20.9797 14.515 20.5846 14.1166 20.5846 13.6251C20.5846 13.1337 20.983 12.7353 21.4744 12.7353C21.9658 12.7353 22.3643 13.1337 22.3643 13.6251ZM24.891 14.5283C24.8346 13.3363 24.5623 12.2804 23.6891 11.4105C22.8191 10.5406 21.7633 10.2683 20.5713 10.2085C19.3428 10.1388 15.6606 10.1388 14.432 10.2085C13.2434 10.265 12.1875 10.5373 11.3143 11.4072C10.441 12.2771 10.1721 13.333 10.1123 14.525C10.0426 15.7535 10.0426 19.4357 10.1123 20.6642C10.1688 21.8562 10.441 22.9121 11.3143 23.782C12.1875 24.6519 13.24 24.9242 14.432 24.9839C15.6606 25.0537 19.3428 25.0537 20.5713 24.9839C21.7633 24.9275 22.8191 24.6552 23.6891 23.782C24.559 22.9121 24.8313 21.8562 24.891 20.6642C24.9607 19.4357 24.9607 15.7568 24.891 14.5283ZM23.3039 21.9824C23.0449 22.6332 22.5436 23.1345 21.8895 23.3968C20.91 23.7853 18.5857 23.6957 17.5033 23.6957C16.4209 23.6957 14.0934 23.782 13.1172 23.3968C12.4664 23.1378 11.965 22.6365 11.7027 21.9824C11.3143 21.0029 11.4039 18.6787 11.4039 17.5962C11.4039 16.5138 11.3176 14.1863 11.7027 13.2101C11.9617 12.5593 12.4631 12.058 13.1172 11.7957C14.0967 11.4072 16.4209 11.4968 17.5033 11.4968C18.5857 11.4968 20.9133 11.4105 21.8895 11.7957C22.5402 12.0546 23.0416 12.556 23.3039 13.2101C23.6924 14.1896 23.6027 16.5138 23.6027 17.5962C23.6027 18.6787 23.6924 21.0062 23.3039 21.9824Z" fill="black"/>
</svg>
