<svg width="35" height="35" viewBox="0 0 35 35" fill="none" xmlns="http://www.w3.org/2000/svg">
<path d="M0.5 3.99961C0.5 2.12184 2.02223 0.599609 3.9 0.599609H31.1C32.9778 0.599609 34.5 2.12184 34.5 3.99961V31.1996C34.5 33.0774 32.9778 34.5996 31.1 34.5996H3.9C2.02223 34.5996 0.5 33.0774 0.5 31.1996V3.99961Z" fill="#0077B5"/>
<path d="M23.875 10.1621H11.1217C10.5373 10.1621 10.0625 10.6436 10.0625 11.2346V23.9646C10.0625 24.5557 10.5373 25.0371 11.1217 25.0371H23.875C24.4594 25.0371 24.9375 24.5557 24.9375 23.9646V11.2346C24.9375 10.6436 24.4594 10.1621 23.875 10.1621ZM14.5582 22.9121H12.3535V15.8133H14.5615V22.9121H14.5582ZM13.4559 14.8438C12.7486 14.8438 12.1775 14.2693 12.1775 13.5654C12.1775 12.8615 12.7486 12.2871 13.4559 12.2871C14.1598 12.2871 14.7342 12.8615 14.7342 13.5654C14.7342 14.2727 14.1631 14.8438 13.4559 14.8438ZM22.8225 22.9121H20.6178V19.459C20.6178 18.6355 20.6012 17.5764 19.4723 17.5764C18.3234 17.5764 18.1475 18.4729 18.1475 19.3992V22.9121H15.9428V15.8133H18.0578V16.7828H18.0877C18.3832 16.225 19.1037 15.6373 20.1762 15.6373C22.4074 15.6373 22.8225 17.1082 22.8225 19.0207V22.9121Z" fill="black"/>
</svg>
