<svg width="14" height="14" viewBox="0 0 14 14" fill="none" xmlns="http://www.w3.org/2000/svg">
<g clip-path="url(#clip0_26_745)">
<path d="M11.6667 5.4445H8.88879L6.33427 0.973735C6.30021 0.914212 6.25102 0.864746 6.1917 0.830345C6.13237 0.795943 6.065 0.777828 5.99642 0.777832H4.40441C4.14604 0.777832 3.95962 1.02502 4.03059 1.27342L5.22229 5.4445H2.72222L1.67222 4.0445C1.59882 3.94655 1.48337 3.88894 1.36111 3.88894H0.389132C0.136112 3.88894 -0.0495829 4.12665 0.0119101 4.37214L0.777778 7.00005L0.0119101 9.62797C-0.0495829 9.87346 0.136112 10.1112 0.389132 10.1112H1.36111C1.48361 10.1112 1.59882 10.0536 1.67222 9.95561L2.72222 8.55561H5.22229L4.03059 12.7264C3.95962 12.9748 4.14604 13.2223 4.40441 13.2223H5.99642C6.13594 13.2223 6.26476 13.1474 6.33403 13.0264L8.88879 8.55561H11.6667C12.5259 8.55561 14 7.85926 14 7.00005C14 6.14085 12.5259 5.4445 11.6667 5.4445Z" fill="#0E578C"/>
</g>
<defs>
<clipPath id="clip0_26_745">
<rect width="14" height="14" fill="white"/>
</clipPath>
</defs>
</svg>
