<svg width="35" height="35" viewBox="0 0 35 35" fill="none" xmlns="http://www.w3.org/2000/svg">
<path d="M0.5 3.99961C0.5 2.12184 2.02223 0.599609 3.9 0.599609H31.1C32.9778 0.599609 34.5 2.12184 34.5 3.99961V31.1996C34.5 33.0774 32.9778 34.5996 31.1 34.5996H3.9C2.02223 34.5996 0.5 33.0774 0.5 31.1996V3.99961Z" fill="black"/>
<path d="M21.9227 10.6934H24.2668L19.1469 16.5437L25.1699 24.5059H20.4551L16.7596 19.6781L12.5361 24.5059H10.1887L15.6639 18.2471L9.88984 10.6934H14.7242L18.0611 15.1061L21.9227 10.6934ZM21.0992 23.1047H22.3975L14.017 12.0215H12.6225L21.0992 23.1047Z" fill="white"/>
</svg>
