<svg width="35" height="35" viewBox="0 0 35 35" fill="none" xmlns="http://www.w3.org/2000/svg">
<path d="M0.5 3.99961C0.5 2.12184 2.02223 0.599609 3.9 0.599609H31.1C32.9778 0.599609 34.5 2.12184 34.5 3.99961V31.1996C34.5 33.0774 32.9778 34.5996 31.1 34.5996H3.9C2.02223 34.5996 0.5 33.0774 0.5 31.1996V3.99961Z" fill="#CD201F"/>
<path d="M25.2225 13.7061C25.0371 13.0081 24.4909 12.4584 23.7974 12.2719C22.5404 11.9329 17.5 11.9329 17.5 11.9329C17.5 11.9329 12.4596 11.9329 11.2026 12.2719C10.5091 12.4584 9.96292 13.0081 9.77755 13.7061C9.44073 14.9713 9.44073 17.611 9.44073 17.611C9.44073 17.611 9.44073 20.2506 9.77755 21.5158C9.96292 22.2138 10.5091 22.7406 11.2026 22.9272C12.4596 23.2662 17.5 23.2662 17.5 23.2662C17.5 23.2662 22.5404 23.2662 23.7974 22.9272C24.4909 22.7406 25.0371 22.2138 25.2225 21.5158C25.5593 20.2506 25.5593 17.611 25.5593 17.611C25.5593 17.611 25.5593 14.9713 25.2225 13.7061ZM15.8515 20.0076V15.2144L20.0643 17.611L15.8515 20.0076Z" fill="black"/>
</svg>
